<svg width="437" height="161" viewBox="0 0 437 161" fill="none" xmlns="http://www.w3.org/2000/svg">
<path d="M61.2613 133.878V130.455H79.2492V133.878H72.2808V153H68.2297V133.878H61.2613ZM88.7169 153V130.455H103.38V133.878H92.801V139.999H102.621V143.423H92.801V149.576H103.468V153H88.7169ZM132.845 138.061H128.728C128.61 137.386 128.394 136.788 128.078 136.267C127.763 135.739 127.37 135.291 126.9 134.924C126.431 134.557 125.895 134.282 125.293 134.098C124.699 133.908 124.056 133.812 123.367 133.812C122.141 133.812 121.055 134.12 120.108 134.737C119.161 135.346 118.42 136.241 117.884 137.423C117.349 138.597 117.081 140.032 117.081 141.727C117.081 143.452 117.349 144.905 117.884 146.087C118.427 147.261 119.169 148.149 120.108 148.751C121.055 149.345 122.137 149.642 123.356 149.642C124.031 149.642 124.662 149.554 125.249 149.378C125.843 149.195 126.376 148.927 126.845 148.575C127.322 148.222 127.722 147.789 128.045 147.276C128.375 146.762 128.603 146.175 128.728 145.514L132.845 145.536C132.691 146.608 132.357 147.613 131.843 148.553C131.337 149.492 130.673 150.321 129.851 151.04C129.029 151.752 128.067 152.31 126.966 152.714C125.866 153.11 124.644 153.308 123.301 153.308C121.319 153.308 119.55 152.85 117.994 151.932C116.439 151.015 115.213 149.69 114.318 147.958C113.422 146.226 112.975 144.149 112.975 141.727C112.975 139.298 113.426 137.221 114.329 135.496C115.231 133.764 116.461 132.44 118.016 131.522C119.572 130.605 121.334 130.146 123.301 130.146C124.555 130.146 125.722 130.322 126.801 130.675C127.88 131.027 128.841 131.544 129.685 132.227C130.529 132.902 131.223 133.731 131.766 134.715C132.316 135.691 132.676 136.806 132.845 138.061ZM142.585 153V130.455H146.669V139.999H157.116V130.455H161.211V153H157.116V143.423H146.669V153H142.585ZM190.181 130.455V153H186.548L175.925 137.643H175.738V153H171.653V130.455H175.308L185.92 145.822H186.119V130.455H190.181ZM220.777 141.727C220.777 144.156 220.322 146.237 219.411 147.969C218.509 149.694 217.276 151.015 215.713 151.932C214.157 152.85 212.392 153.308 210.418 153.308C208.443 153.308 206.675 152.85 205.111 151.932C203.556 151.007 202.323 149.683 201.413 147.958C200.51 146.226 200.059 144.149 200.059 141.727C200.059 139.298 200.51 137.221 201.413 135.496C202.323 133.764 203.556 132.44 205.111 131.522C206.675 130.605 208.443 130.146 210.418 130.146C212.392 130.146 214.157 130.605 215.713 131.522C217.276 132.44 218.509 133.764 219.411 135.496C220.322 137.221 220.777 139.298 220.777 141.727ZM216.67 141.727C216.67 140.017 216.402 138.575 215.867 137.401C215.338 136.219 214.604 135.328 213.665 134.726C212.726 134.117 211.643 133.812 210.418 133.812C209.192 133.812 208.109 134.117 207.17 134.726C206.231 135.328 205.493 136.219 204.957 137.401C204.429 138.575 204.165 140.017 204.165 141.727C204.165 143.437 204.429 144.883 204.957 146.065C205.493 147.239 206.231 148.131 207.17 148.74C208.109 149.342 209.192 149.642 210.418 149.642C211.643 149.642 212.726 149.342 213.665 148.74C214.604 148.131 215.338 147.239 215.867 146.065C216.402 144.883 216.67 143.437 216.67 141.727ZM230.638 153V130.455H234.722V149.576H244.652V153H230.638ZM273.464 141.727C273.464 144.156 273.009 146.237 272.099 147.969C271.196 149.694 269.963 151.015 268.4 151.932C266.844 152.85 265.079 153.308 263.105 153.308C261.131 153.308 259.362 152.85 257.799 151.932C256.243 151.007 255.01 149.683 254.1 147.958C253.197 146.226 252.746 144.149 252.746 141.727C252.746 139.298 253.197 137.221 254.1 135.496C255.01 133.764 256.243 132.44 257.799 131.522C259.362 130.605 261.131 130.146 263.105 130.146C265.079 130.146 266.844 130.605 268.4 131.522C269.963 132.44 271.196 133.764 272.099 135.496C273.009 137.221 273.464 139.298 273.464 141.727ZM269.358 141.727C269.358 140.017 269.09 138.575 268.554 137.401C268.026 136.219 267.292 135.328 266.353 134.726C265.413 134.117 264.331 133.812 263.105 133.812C261.879 133.812 260.797 134.117 259.858 134.726C258.918 135.328 258.181 136.219 257.645 137.401C257.116 138.575 256.852 140.017 256.852 141.727C256.852 143.437 257.116 144.883 257.645 146.065C258.181 147.239 258.918 148.131 259.858 148.74C260.797 149.342 261.879 149.642 263.105 149.642C264.331 149.642 265.413 149.342 266.353 148.74C267.292 148.131 268.026 147.239 268.554 146.065C269.09 144.883 269.358 143.437 269.358 141.727ZM298.429 137.654C298.246 137.06 297.992 136.528 297.669 136.058C297.354 135.581 296.972 135.174 296.525 134.836C296.084 134.498 295.578 134.245 295.005 134.076C294.433 133.9 293.809 133.812 293.134 133.812C291.923 133.812 290.844 134.117 289.897 134.726C288.951 135.335 288.206 136.23 287.663 137.412C287.127 138.586 286.859 140.017 286.859 141.705C286.859 143.408 287.127 144.85 287.663 146.032C288.198 147.213 288.943 148.112 289.897 148.729C290.851 149.338 291.96 149.642 293.222 149.642C294.367 149.642 295.358 149.422 296.194 148.982C297.038 148.542 297.688 147.918 298.143 147.11C298.598 146.296 298.825 145.342 298.825 144.248L299.75 144.391H293.629V141.199H302.777V143.907C302.777 145.837 302.366 147.507 301.544 148.916C300.722 150.325 299.592 151.411 298.154 152.174C296.715 152.93 295.064 153.308 293.2 153.308C291.123 153.308 289.299 152.842 287.729 151.91C286.165 150.971 284.944 149.639 284.063 147.914C283.19 146.182 282.753 144.127 282.753 141.749C282.753 139.929 283.01 138.304 283.523 136.873C284.045 135.441 284.771 134.227 285.703 133.229C286.635 132.223 287.729 131.46 288.984 130.939C290.239 130.411 291.604 130.146 293.079 130.146C294.326 130.146 295.49 130.33 296.569 130.697C297.647 131.056 298.605 131.57 299.442 132.238C300.286 132.906 300.979 133.698 301.522 134.616C302.065 135.533 302.421 136.546 302.59 137.654H298.429ZM316.811 130.455V153H312.727V130.455H316.811ZM327.233 153V130.455H341.897V133.878H331.318V139.999H341.137V143.423H331.318V149.576H341.985V153H327.233ZM364.316 136.652C364.213 135.691 363.78 134.942 363.017 134.407C362.261 133.871 361.278 133.603 360.067 133.603C359.215 133.603 358.485 133.731 357.876 133.988C357.267 134.245 356.801 134.594 356.478 135.034C356.155 135.474 355.99 135.977 355.983 136.542C355.983 137.012 356.089 137.419 356.302 137.764C356.522 138.109 356.819 138.403 357.194 138.645C357.568 138.88 357.982 139.078 358.438 139.239C358.893 139.401 359.351 139.537 359.814 139.647L361.927 140.175C362.779 140.373 363.597 140.641 364.382 140.979C365.175 141.316 365.883 141.742 366.507 142.256C367.138 142.769 367.637 143.39 368.004 144.116C368.371 144.843 368.554 145.694 368.554 146.67C368.554 147.991 368.217 149.154 367.542 150.16C366.866 151.158 365.89 151.94 364.613 152.505C363.344 153.062 361.806 153.341 360.001 153.341C358.247 153.341 356.724 153.07 355.432 152.527C354.148 151.984 353.142 151.191 352.416 150.149C351.697 149.107 351.308 147.837 351.249 146.34H355.267C355.326 147.125 355.568 147.778 355.994 148.299C356.419 148.82 356.973 149.209 357.656 149.466C358.346 149.723 359.116 149.852 359.968 149.852C360.856 149.852 361.634 149.719 362.301 149.455C362.977 149.184 363.505 148.809 363.887 148.332C364.268 147.848 364.463 147.283 364.47 146.637C364.463 146.05 364.29 145.566 363.953 145.184C363.615 144.795 363.142 144.472 362.533 144.215C361.931 143.951 361.226 143.716 360.419 143.511L357.854 142.85C355.997 142.373 354.529 141.65 353.451 140.681C352.379 139.705 351.843 138.41 351.843 136.795C351.843 135.467 352.203 134.304 352.922 133.306C353.649 132.308 354.636 131.533 355.884 130.983C357.131 130.425 358.544 130.146 360.122 130.146C361.722 130.146 363.123 130.425 364.327 130.983C365.538 131.533 366.488 132.3 367.178 133.284C367.868 134.26 368.224 135.383 368.246 136.652H364.316Z" fill="#343434"/>
<mask id="mask0_322_14" style="mask-type:alpha" maskUnits="userSpaceOnUse" x="27" y="126" width="35" height="33">
<g clip-path="url(#clip0_322_14)">
<path d="M27 142.5L62 126L62 134.25L41 142.5L62 150.75L62 159L27 142.5Z" fill="black"/>
</g>
</mask>
<g mask="url(#mask0_322_14)">
<path d="M27 159L27 126L48 126L48 142.5L48 159L27 159Z" fill="#FF0000"/>
</g>
<path d="M33.38 112.28C27.748 112.28 22.6707 110.872 18.148 108.056C13.6253 105.24 10.084 101.4 7.52401 96.536C4.96401 91.672 3.68401 86.2107 3.68401 80.152C3.68401 74.008 4.96401 68.504 7.52401 63.64C10.084 58.776 13.6253 54.936 18.148 52.12C22.6707 49.304 27.748 47.896 33.38 47.896C37.8173 47.896 41.7853 48.792 45.284 50.584C48.7827 52.376 51.556 54.8933 53.604 58.136C55.7373 61.2933 56.8893 64.8773 57.06 68.888V91.16C56.8893 95.256 55.7373 98.8827 53.604 102.04C51.556 105.197 48.7827 107.715 45.284 109.592C41.7853 111.384 37.8173 112.28 33.38 112.28ZM36.452 96.792C41.1453 96.792 44.9427 95.256 47.844 92.184C50.7453 89.0267 52.196 84.9733 52.196 80.024C52.196 76.7813 51.5133 73.9227 50.148 71.448C48.868 68.888 47.0333 66.9253 44.644 65.56C42.34 64.1093 39.6093 63.384 36.452 63.384C33.38 63.384 30.6493 64.1093 28.26 65.56C25.956 66.9253 24.1213 68.888 22.756 71.448C21.476 73.9227 20.836 76.7813 20.836 80.024C20.836 83.352 21.476 86.296 22.756 88.856C24.1213 91.3307 25.956 93.2933 28.26 94.744C30.6493 96.1093 33.38 96.792 36.452 96.792ZM51.3 111V94.36L53.988 79.256L51.3 64.408V49.176H67.94V111H51.3ZM76.374 111V18.456H93.142V111H76.374ZM110.687 111V23.448H127.455V111H110.687ZM96.223 63.896V49.176H141.919V63.896H96.223ZM144.949 111V49.176H161.845V111H144.949ZM153.397 39.192C150.666 39.192 148.405 38.296 146.613 36.504C144.821 34.6267 143.925 32.3227 143.925 29.592C143.925 26.9467 144.821 24.6853 146.613 22.808C148.405 20.9307 150.666 19.992 153.397 19.992C156.213 19.992 158.474 20.9307 160.181 22.808C161.973 24.6853 162.869 26.9467 162.869 29.592C162.869 32.3227 161.973 34.6267 160.181 36.504C158.474 38.296 156.213 39.192 153.397 39.192ZM179.387 111V23.448H196.155V111H179.387ZM164.923 63.896V49.176H210.619V63.896H164.923ZM240.017 112.28C234.556 112.28 229.692 111.128 225.425 108.824C221.244 106.52 217.958 103.32 215.569 99.224C213.18 95.128 211.985 90.392 211.985 85.016V49.176H228.881V84.632C228.881 87.192 229.308 89.4107 230.161 91.288C231.014 93.08 232.294 94.4453 234.001 95.384C235.708 96.3227 237.713 96.792 240.017 96.792C243.516 96.792 246.246 95.7253 248.209 93.592C250.172 91.4587 251.153 88.472 251.153 84.632V49.176H267.921V85.016C267.921 90.4773 266.726 95.256 264.337 99.352C262.033 103.448 258.748 106.648 254.481 108.952C250.3 111.171 245.478 112.28 240.017 112.28ZM300.986 112.28C295.269 112.28 290.149 110.872 285.626 108.056C281.103 105.24 277.519 101.4 274.874 96.536C272.314 91.672 271.034 86.2107 271.034 80.152C271.034 74.008 272.314 68.504 274.874 63.64C277.519 58.776 281.061 54.936 285.498 52.12C290.021 49.304 295.183 47.896 300.986 47.896C305.423 47.896 309.391 48.792 312.89 50.584C316.474 52.376 319.333 54.8933 321.466 58.136C323.685 61.2933 324.879 64.8773 325.05 68.888V90.904C324.879 94.9147 323.727 98.5413 321.594 101.784C319.461 105.027 316.602 107.587 313.018 109.464C309.434 111.341 305.423 112.28 300.986 112.28ZM303.802 96.792C306.959 96.792 309.69 96.1093 311.994 94.744C314.383 93.2933 316.218 91.3307 317.498 88.856C318.863 86.296 319.546 83.352 319.546 80.024C319.546 76.7813 318.863 73.9227 317.498 71.448C316.218 68.888 314.383 66.9253 311.994 65.56C309.69 64.1093 307.002 63.384 303.93 63.384C300.773 63.384 297.999 64.1093 295.61 65.56C293.306 67.0107 291.471 68.9733 290.106 71.448C288.826 73.9227 288.186 76.7813 288.186 80.024C288.186 83.352 288.826 86.296 290.106 88.856C291.471 91.3307 293.349 93.2933 295.738 94.744C298.127 96.1093 300.815 96.792 303.802 96.792ZM335.29 111H318.65V94.36L321.338 79.256L318.522 64.408V18.456H335.29V111Z" fill="#0F172A"/>
<path d="M373.292 112.28C366.807 112.28 361.047 110.915 356.012 108.184C350.977 105.368 346.967 101.528 343.98 96.664C341.079 91.8 339.628 86.2533 339.628 80.024C339.628 73.88 341.036 68.4187 343.852 63.64C346.753 58.776 350.679 54.936 355.628 52.12C360.577 49.2187 366.081 47.768 372.14 47.768C378.113 47.768 383.361 49.1333 387.884 51.864C392.492 54.5093 396.076 58.1787 398.636 62.872C401.281 67.48 402.604 72.728 402.604 78.616C402.604 79.7253 402.519 80.8773 402.348 82.072C402.263 83.1813 402.049 84.4613 401.708 85.912L349.74 86.04V73.496L393.9 73.368L387.116 78.616C386.945 74.9467 386.263 71.8747 385.068 69.4C383.959 66.9253 382.295 65.048 380.076 63.768C377.943 62.4027 375.297 61.72 372.14 61.72C368.812 61.72 365.911 62.488 363.436 64.024C360.961 65.4747 359.041 67.5653 357.676 70.296C356.396 72.9413 355.756 76.0987 355.756 79.768C355.756 83.5227 356.439 86.808 357.804 89.624C359.255 92.3547 361.303 94.488 363.948 96.024C366.593 97.4747 369.665 98.2 373.164 98.2C376.321 98.2 379.18 97.688 381.74 96.664C384.3 95.5547 386.519 93.9333 388.396 91.8L398.252 101.656C395.265 105.155 391.596 107.8 387.244 109.592C382.977 111.384 378.327 112.28 373.292 112.28ZM418.094 112.28C415.022 112.28 412.505 111.256 410.542 109.208C408.579 107.16 407.598 104.643 407.598 101.656C407.598 98.6693 408.579 96.152 410.542 94.104C412.505 92.056 415.022 91.032 418.094 91.032C421.081 91.032 423.555 92.056 425.518 94.104C427.481 96.152 428.462 98.6693 428.462 101.656C428.462 104.643 427.481 107.16 425.518 109.208C423.555 111.256 421.081 112.28 418.094 112.28Z" fill="#FF0000"/>
<defs>
<clipPath id="clip0_322_14">
<rect width="33" height="35" fill="white" transform="translate(27 159) rotate(-90)"/>
</clipPath>
</defs>
</svg>
